<svg width="171" height="52" viewBox="0 0 171 52" fill="none" xmlns="http://www.w3.org/2000/svg">
<g filter="url(#filter0_d_45_61)">
<path d="M28.4175 37V17.4H31.6655V37H28.4175ZM15.3135 37V17.4H18.5615V37H15.3135ZM17.8615 28.432V25.464H29.7335V28.432H17.8615ZM100.234 37V17.4H103.482V37H100.234ZM102.502 37V34.032H112.358V37H102.502ZM118.89 37L118.918 23H122.026L121.998 37H118.89ZM120.458 20.34C119.954 20.34 119.515 20.1627 119.142 19.808C118.787 19.4347 118.61 18.996 118.61 18.492C118.61 17.988 118.787 17.5587 119.142 17.204C119.515 16.8493 119.954 16.672 120.458 16.672C120.962 16.672 121.391 16.8493 121.746 17.204C122.119 17.5587 122.306 17.988 122.306 18.492C122.306 18.996 122.119 19.4347 121.746 19.808C121.391 20.1627 120.962 20.34 120.458 20.34ZM128.55 23.756L130.23 17.4H133.534L131.014 23.756H128.55ZM146.557 37V33.976C147.472 33.976 148.33 33.808 149.133 33.472C149.936 33.1173 150.636 32.632 151.233 32.016C151.83 31.4 152.297 30.6813 152.633 29.86C152.969 29.0387 153.137 28.152 153.137 27.2C153.137 26.248 152.969 25.3613 152.633 24.54C152.297 23.7187 151.83 23 151.233 22.384C150.636 21.768 149.936 21.292 149.133 20.956C148.33 20.6013 147.472 20.424 146.557 20.424V17.4C148.48 17.4 150.178 17.82 151.653 18.66C153.146 19.4813 154.313 20.6293 155.153 22.104C156.012 23.5787 156.441 25.2773 156.441 27.2C156.441 29.104 156.012 30.7933 155.153 32.268C154.313 33.7427 153.146 34.9 151.653 35.74C150.178 36.58 148.48 37 146.557 37ZM142.497 37V33.976H146.557V37H142.497ZM140.397 37V17.4H143.645V37H140.397ZM142.497 20.424V17.4H146.557V20.424H142.497Z" fill="#F44A1F"/>
</g>
<circle cx="65.5" cy="25.5" r="9.0625" fill="#F44A1F" stroke="#131218"/>
<line x1="66" x2="66" y2="12.75" stroke="#F44A1F"/>
<line x1="66" y1="38.25" x2="66" y2="51" stroke="#F44A1F"/>
<line x1="57.8637" y1="35.3727" x2="49.9548" y2="45.3732" stroke="#F44A1F"/>
<line x1="83.3637" y1="6.68516" x2="75.4548" y2="16.6857" stroke="#F44A1F"/>
<line x1="75.008" y1="36.6722" x2="83.4039" y2="46.2676" stroke="#F44A1F"/>
<line x1="48.345" y1="6.04575" x2="56.7409" y2="15.6411" stroke="#F44A1F"/>
<path d="M40 25.5L52.75 25.5" stroke="#F44A1F"/>
<path d="M79.8438 25.5L92.5937 25.5" stroke="#F44A1F"/>
<defs>
<filter id="filter0_d_45_61" x="12.3136" y="13.6721" width="149.127" height="28.3279" filterUnits="userSpaceOnUse" color-interpolation-filters="sRGB">
<feFlood flood-opacity="0" result="BackgroundImageFix"/>
<feColorMatrix in="SourceAlpha" type="matrix" values="0 0 0 0 0 0 0 0 0 0 0 0 0 0 0 0 0 0 127 0" result="hardAlpha"/>
<feOffset dx="1" dy="1"/>
<feGaussianBlur stdDeviation="2"/>
<feComposite in2="hardAlpha" operator="out"/>
<feColorMatrix type="matrix" values="0 0 0 0 1 0 0 0 0 1 0 0 0 0 1 0 0 0 0.15 0"/>
<feBlend mode="normal" in2="BackgroundImageFix" result="effect1_dropShadow_45_61"/>
<feBlend mode="normal" in="SourceGraphic" in2="effect1_dropShadow_45_61" result="shape"/>
</filter>
</defs>
</svg>
