<svg width="556" height="368" viewBox="0 0 556 368" fill="none" xmlns="http://www.w3.org/2000/svg">
<g filter="url(#filter0_i_1391_305)">
<g filter="url(#filter1_f_1391_305)">
<path d="M232.292 63.4658C236.363 63.472 240.324 64.5156 243.595 66.4434C244.443 66.3462 245.298 66.2946 246.154 66.289C249.502 66.2916 252.789 66.9957 255.685 68.3305C258.581 69.6653 260.983 71.5835 262.649 73.8917C265.084 75.2928 267.067 77.1324 268.436 79.2598C269.805 81.3873 270.521 83.7422 270.525 86.132C270.525 88.12 270.033 90.0885 269.076 91.9252C268.12 93.7619 266.717 95.4308 264.949 96.8366C263.181 98.2423 261.082 99.3575 258.772 100.118C256.462 100.879 253.987 101.271 251.486 101.271C250.13 101.264 248.778 101.143 247.454 100.909C243.929 103.552 239.27 105.028 234.424 105.035C231.263 105.03 228.154 104.399 225.376 103.2C222.589 104.403 219.468 105.034 216.296 105.035C213.713 105.031 211.158 104.61 208.786 103.796C206.414 102.983 204.275 101.794 202.499 100.302C197.631 100.098 193.047 98.4174 189.691 95.606C186.335 92.7947 184.463 89.0669 184.461 85.1909C184.465 81.7757 185.922 78.4621 188.594 75.7884C191.266 73.1146 194.997 71.2379 199.18 70.463C200.901 68.3185 203.273 66.5532 206.078 65.3303C208.883 64.1073 212.031 63.4661 215.23 63.4658C218.199 63.4669 221.127 64.0202 223.779 65.0814C226.421 64.0247 229.335 63.4716 232.292 63.4658Z" fill="white"/>
</g>
<g filter="url(#filter2_f_1391_305)">
<path d="M341.553 198.035C351.196 198.041 355.174 201.574 362.92 203.294C364.928 203.207 393.001 196.222 395.03 196.217C411.167 196.222 432.455 213.12 440.487 217.312C447.27 232.425 470.916 236.051 470.938 240.377C470.939 247.837 406.517 234.368 381.612 234.368C378.399 234.362 375.198 234.254 372.062 234.045C363.713 236.404 352.676 245.527 341.199 245.533C333.712 245.528 322.415 242.364 315.835 241.293C309.234 242.367 306.182 226.63 297.77 224.716C286.895 222.24 274.081 236.194 265.581 233.504C241.637 233.126 222.866 227.203 222.856 220.021C222.877 213.747 222.576 194.426 242.977 193.002C251.259 189.114 265.593 186.76 280.992 186.759C288.026 186.76 309.704 201.132 315.987 202.079C322.243 201.136 334.551 198.041 341.553 198.035Z" fill="white"/>
</g>
<path d="M449.019 154.536L413.648 157.712L409.925 153.331L407.443 156.836L384.98 158.15H364.626L353.084 157.493L321.313 154.207L279.986 150.374L233.817 145.445L194.103 141.721L175.735 139.75L158.732 136.902C158.732 136.902 155.359 136.504 153.892 135.807C152.319 135.06 150.96 133.913 149.921 132.631C148.584 130.982 147.19 127.045 147.19 127.045L148.804 120.802C148.804 120.802 157.855 91.3928 160.097 86.8498C161.43 84.1514 164.145 81.9479 167.047 80.4975C170.077 78.9831 173.742 78.4206 177.224 78.4165C180.747 78.4122 184.477 78.9399 187.525 80.4975C190.109 81.8179 191.837 84.1791 193.606 86.3023C197.196 90.6111 202.666 100.212 202.666 100.212L213.71 116.533L217.309 121.023L226.121 124.638L275.515 125.514L296.117 122.119L320.69 115.438L347.249 109.961L384.233 110.18L402.849 125.295L447.403 126.171L454.318 127.626L454.456 132.215L454.252 136.029L451.995 137.561L451.251 148.843L450.63 152.457L449.019 154.536Z" fill="#FFD42A"/>
<path fill-rule="evenodd" clip-rule="evenodd" d="M187.753 80.0523C184.606 78.4442 180.787 77.9122 177.224 77.9165C173.697 77.9207 169.948 78.4892 166.825 80.0503C163.868 81.5277 161.048 83.7962 159.65 86.6285C159.072 87.7993 158.075 90.5235 156.914 93.9093C155.749 97.3098 154.406 101.415 153.134 105.377C151.862 109.338 150.66 113.158 149.776 115.987C149.334 117.401 148.972 118.568 148.72 119.382C148.594 119.788 148.496 120.107 148.429 120.323L148.333 120.634L148.328 120.65L148.327 120.654L148.327 120.655C148.326 120.655 148.326 120.655 148.413 120.681L148.327 120.655L148.323 120.666L146.669 127.068L146.72 127.212L147.191 127.045C146.72 127.212 146.719 127.212 146.72 127.212L146.72 127.213L146.721 127.216L146.737 127.259C146.743 127.278 146.752 127.303 146.763 127.332L146.784 127.39C146.826 127.503 146.886 127.665 146.963 127.865C147.116 128.265 147.335 128.815 147.596 129.418C148.111 130.607 148.817 132.062 149.533 132.946C150.613 134.278 152.029 135.475 153.678 136.259C154.479 136.639 155.75 136.922 156.773 137.108C157.295 137.203 157.769 137.275 158.112 137.324C158.284 137.349 158.424 137.367 158.521 137.38C158.57 137.386 158.608 137.391 158.633 137.394L158.663 137.398L158.671 137.399L175.667 140.246L194.05 142.219L194.057 142.219L233.765 145.942L233.771 145.943L279.933 150.871L279.94 150.872L321.262 154.704L321.267 154.705L353.045 157.991L364.612 158.65H384.995L407.713 157.321L409.962 154.145L413.436 158.233L449.281 155.014L451.102 152.664L451.748 148.901L452.479 137.838L454.738 136.304L454.957 132.221L454.807 127.217L447.461 125.672L403.031 124.798L384.412 109.681L347.2 109.461L320.575 114.951L296.011 121.629L275.479 125.013L226.224 124.139L217.619 120.61L214.113 116.236L203.092 99.9477L203.085 99.9362L203.038 99.8544C203.014 99.8127 202.984 99.7596 202.947 99.6957C202.92 99.6496 202.891 99.5979 202.858 99.5409C202.7 99.269 202.472 98.876 202.187 98.3911C201.617 97.4214 200.819 96.0834 199.908 94.6101C198.092 91.6718 195.811 88.1668 193.991 85.9823C193.781 85.7297 193.569 85.4715 193.355 85.2103C191.805 83.3169 190.124 81.2639 187.753 80.0523ZM202.667 100.212L202.232 100.46L202.242 100.476L213.308 116.83L217 121.437L226.019 125.136L275.552 126.015L296.224 122.608L320.807 115.924L347.299 110.462L384.054 110.679L402.668 125.791L447.347 126.67L453.831 128.034L453.956 132.209L453.766 135.755L451.513 137.285L450.754 148.784L450.159 152.249L448.758 154.057L413.862 157.191L409.89 152.516L407.174 156.351L384.966 157.65H364.641L353.125 156.994L321.365 153.71L321.36 153.709L280.039 149.877L280.032 149.876L233.871 144.948L233.865 144.947L194.157 141.224L194.15 141.224L175.803 139.254L158.804 136.407L158.792 136.406L158.783 136.405L158.756 136.401C158.732 136.398 158.696 136.394 158.649 136.388C158.556 136.376 158.421 136.358 158.253 136.334C157.919 136.287 157.458 136.216 156.952 136.124C155.922 135.937 154.773 135.672 154.107 135.355C152.61 134.645 151.309 133.549 150.31 132.316C149.689 131.55 149.03 130.212 148.514 129.021C148.259 128.434 148.046 127.897 147.896 127.507C147.822 127.312 147.763 127.154 147.723 127.045C147.72 127.037 147.717 127.028 147.714 127.021L149.283 120.948L149.284 120.944L149.384 120.618C149.451 120.402 149.549 120.084 149.675 119.678C149.927 118.865 150.289 117.699 150.731 116.285C151.614 113.458 152.815 109.641 154.086 105.682C155.357 101.724 156.698 97.625 157.86 94.2335C159.028 90.8273 160.003 88.1718 160.546 87.0712C161.812 84.5067 164.423 82.3682 167.272 80.9448C170.208 79.4771 173.788 78.9206 177.226 78.9165C180.708 78.9123 184.349 79.4357 187.298 80.9428C189.469 82.0522 191.009 83.9287 192.574 85.8363C192.789 86.0983 193.005 86.361 193.223 86.6223C194.992 88.7466 197.241 92.1964 199.058 95.1358C199.963 96.6014 200.757 97.9329 201.325 98.8981C201.609 99.3806 201.836 99.7713 201.992 100.041C202.07 100.176 202.13 100.281 202.171 100.352L202.217 100.433L202.231 100.458L202.232 100.46C202.232 100.46 202.232 100.46 202.667 100.212Z" fill="black"/>
<path fill-rule="evenodd" clip-rule="evenodd" d="M446.601 131.652L149.426 132.523L447.018 150.145L446.851 143.819L446.601 131.652Z" fill="#002255"/>
<path d="M427.377 137.681C429.442 137.681 431.117 139.16 431.117 140.982C431.117 142.804 429.442 144.283 427.377 144.283C425.312 144.283 423.65 142.804 423.65 140.982C423.65 139.16 425.312 137.681 427.377 137.681ZM427.913 137.74C427.913 137.74 427.901 137.74 427.9 137.74H426.854V138.474C427.025 138.446 427.197 138.438 427.377 138.438C427.558 138.438 427.742 138.446 427.913 138.474L427.913 137.74ZM427.792 138.486C427.792 138.485 427.781 138.486 427.779 138.486H426.975L426.975 140.627H424.548L424.548 141.337H426.975L426.975 143.479C426.975 143.479 426.973 143.49 426.975 143.49H427.779C427.78 143.49 427.792 143.48 427.792 143.479V141.337H430.219L430.219 140.627H427.792L427.792 138.486ZM431.05 140.521H430.219C430.251 140.671 430.273 140.823 430.273 140.982C430.273 141.138 430.249 141.296 430.219 141.444H431.05V140.521ZM424.548 140.521H423.717C423.716 140.521 423.703 140.52 423.703 140.521V141.444C423.703 141.444 423.715 141.444 423.717 141.444L424.548 141.444C424.518 141.296 424.494 141.138 424.494 140.982C424.494 140.823 424.516 140.672 424.548 140.521ZM427.913 143.49C427.741 143.518 427.558 143.526 427.377 143.526C427.197 143.526 427.025 143.518 426.854 143.49V144.224H427.9C427.9 144.224 427.913 144.225 427.913 144.224L427.913 143.49Z" fill="#E8C741"/>
<g opacity="0.67" filter="url(#filter3_f_1391_305)">
<path d="M177.184 78.7275C180.66 78.7155 184.344 79.2333 187.354 80.7695C189.903 82.0708 191.603 84.4032 193.347 86.4972C196.917 90.7831 202.363 100.328 202.363 100.328L213.408 116.647L217.138 121.332L226.039 124.907L275.564 125.822L296.562 122.35L320.695 115.437L347.255 109.96L384.239 110.179L402.745 125.603L447.453 126.48L453.973 127.934L454.111 132.291L453.95 135.834L452.381 136.9L447.409 135.984C447.409 135.984 411.719 138.024 402.855 135.107C394.954 132.507 384.239 119.992 384.239 119.992L347.255 119.773L324.065 127.48C324.065 127.48 305.481 130.68 296.124 131.931C289.516 132.814 283.191 133.645 276.223 134.086C262.268 134.971 238.485 135.328 226.829 133.211C223.657 132.634 218.979 131.33 215.911 129.132C214.903 128.42 213.701 126.347 213.701 126.347L202.655 110.028C202.655 110.028 197.185 100.428 193.596 96.1192C191.827 93.9959 190.099 91.6345 187.515 90.3141C184.466 88.7565 180.736 88.2292 177.213 88.2333C173.731 88.2376 170.067 88.7997 167.036 90.3141C164.134 91.7646 161.718 94.0995 160.086 96.6664C154.889 104.843 148.889 130.381 148.889 130.381L147.573 127.086L149.1 121.038C149.1 121.038 156.705 95.4573 160.437 87.0074C161.615 84.3413 164.352 82.2293 167.168 80.8097C170.142 79.3102 173.744 78.7407 177.169 78.7289L177.184 78.7275Z" fill="white"/>
</g>
<path fill-rule="evenodd" clip-rule="evenodd" d="M408.42 125.518L408.509 151.171L409.51 153.661L410.438 153.288L409.508 150.976L409.42 125.515L408.42 125.518Z" fill="black"/>
<path fill-rule="evenodd" clip-rule="evenodd" d="M447.417 150.863L446.892 126.127L445.892 126.149L446.42 150.978L447.219 154.742L448.197 154.534L447.417 150.863Z" fill="black"/>
<path fill-rule="evenodd" clip-rule="evenodd" d="M409.008 132.058L446.393 131.98L446.39 130.98L409.006 131.058L409.008 132.058Z" fill="black"/>
<path fill-rule="evenodd" clip-rule="evenodd" d="M409.096 150.522L446.568 150.366L446.562 148.866L409.09 149.022L409.096 150.522Z" fill="black"/>
<path opacity="0.99" d="M159.69 150.579C159.227 150.579 158.85 150.247 158.85 149.837C158.85 149.428 159.227 149.096 159.69 149.096C160.154 149.096 160.53 149.428 160.53 149.837C160.53 150.247 160.154 150.579 159.69 150.579Z" fill="#1A1A1A"/>
<path opacity="0.99" fill-rule="evenodd" clip-rule="evenodd" d="M159.691 149.194C160.112 149.194 160.433 149.493 160.433 149.837C160.433 150.181 160.112 150.48 159.691 150.48C159.269 150.48 158.949 150.181 158.949 149.837C158.949 149.493 159.269 149.194 159.691 149.194ZM160.629 149.837C160.629 149.363 160.197 148.998 159.691 148.998C159.185 148.998 158.753 149.363 158.753 149.837C158.753 150.312 159.185 150.677 159.691 150.677C160.197 150.677 160.629 150.312 160.629 149.837Z" fill="black"/>
<path fill-rule="evenodd" clip-rule="evenodd" d="M165.306 144.802L162.849 144.415C162.849 144.415 162.285 145.315 162.146 145.809C161.935 146.562 162.282 147.406 161.971 148.132C161.801 148.528 161.48 148.888 161.093 149.139C160.764 149.352 159.942 149.513 159.942 149.513L159.953 150.145C159.953 150.145 161.326 150.239 161.971 150.068C162.461 149.938 162.932 149.696 163.287 149.371C163.915 148.798 164.272 148.022 164.604 147.28C164.958 146.488 165.306 144.802 165.306 144.802Z" fill="#7F6A15"/>
<path fill-rule="evenodd" clip-rule="evenodd" d="M162.425 144.149L162.849 144.415C162.425 144.149 162.425 144.149 162.425 144.149L162.423 144.153L162.417 144.162L162.398 144.193C162.381 144.22 162.358 144.259 162.329 144.307C162.272 144.402 162.194 144.535 162.112 144.685C161.955 144.969 161.752 145.364 161.665 145.674C161.544 146.105 161.571 146.554 161.591 146.905C161.593 146.94 161.595 146.974 161.597 147.008C161.619 147.41 161.615 147.692 161.511 147.935C161.386 148.228 161.137 148.515 160.821 148.719C160.731 148.778 160.515 148.855 160.264 148.923C160.149 148.954 160.044 148.979 159.967 148.996C159.928 149.005 159.897 149.012 159.876 149.016L159.853 149.021L159.847 149.022L159.846 149.022L159.435 149.102L159.46 150.613L159.919 150.644L159.953 150.146C159.919 150.644 159.919 150.644 159.919 150.644L159.924 150.645L159.937 150.646L159.984 150.648C160.025 150.651 160.083 150.654 160.155 150.657C160.299 150.663 160.497 150.67 160.718 150.671C161.138 150.673 161.705 150.656 162.099 150.551C162.656 150.404 163.202 150.126 163.624 149.741M161.173 149.663C161.439 149.652 161.681 149.628 161.843 149.585C162.266 149.473 162.662 149.265 162.95 149.002C163.49 148.509 163.81 147.83 164.147 147.076C164.305 146.724 164.471 146.143 164.603 145.622C164.64 145.475 164.673 145.336 164.702 145.213L163.104 144.961C163.068 145.024 163.028 145.094 162.987 145.168C162.828 145.457 162.68 145.759 162.628 145.944C162.555 146.206 162.57 146.49 162.591 146.878C162.593 146.903 162.594 146.928 162.595 146.954C162.616 147.343 162.637 147.846 162.431 148.329C162.217 148.829 161.823 149.261 161.366 149.558C161.308 149.596 161.242 149.631 161.173 149.663ZM165.306 144.802L165.796 144.903L165.901 144.39L162.6 143.869L162.425 144.149M165.306 144.802C165.796 144.903 165.796 144.903 165.796 144.903L165.794 144.909L165.791 144.924L165.779 144.981C165.769 145.03 165.753 145.1 165.734 145.187C165.695 145.361 165.639 145.601 165.572 145.866C165.442 146.386 165.257 147.044 165.06 147.484M165.06 147.484C164.734 148.214 164.341 149.087 163.624 149.741Z" fill="black"/>
<path d="M457.491 127.457C457.491 127.457 462.255 129.29 462.318 131.174C462.384 133.163 457.491 135.356 457.491 135.356V127.457Z" fill="#002255"/>
<path fill-rule="evenodd" clip-rule="evenodd" d="M456.991 126.729V136.128L457.696 135.812L457.491 135.356C457.696 135.812 457.695 135.812 457.696 135.812L457.7 135.81L457.712 135.805L457.756 135.785C457.793 135.767 457.848 135.742 457.917 135.709C458.054 135.643 458.25 135.548 458.484 135.426C458.951 135.185 459.577 134.84 460.203 134.429C460.826 134.021 461.469 133.534 461.958 133.006C462.434 132.493 462.841 131.857 462.817 131.157C462.795 130.486 462.365 129.9 461.883 129.438C461.386 128.961 460.746 128.532 460.131 128.176C459.513 127.818 458.899 127.522 458.442 127.317C458.212 127.214 458.021 127.133 457.887 127.077C457.819 127.049 457.766 127.028 457.729 127.013L457.687 126.996L457.675 126.992L457.672 126.991L457.671 126.99C457.671 126.99 457.671 126.99 457.491 127.457L457.671 126.99L456.991 126.729ZM457.991 128.211C458.004 128.217 458.018 128.223 458.031 128.229C458.469 128.426 459.05 128.706 459.63 129.042C460.214 129.38 460.777 129.762 461.191 130.159C461.62 130.571 461.809 130.921 461.818 131.191C461.828 131.486 461.648 131.87 461.225 132.327C460.815 132.769 460.247 133.204 459.655 133.593C459.066 133.979 458.473 134.306 458.025 134.538C458.013 134.544 458.002 134.55 457.991 134.556V128.211Z" fill="black"/>
<path opacity="0.5" d="M462.064 131.026C462.212 131.258 462.06 130.89 462.067 131.128C462.13 132.993 457.488 135.05 457.488 135.05V133.53C457.488 133.53 461.121 132.629 462.064 131.026Z" fill="black"/>
<path opacity="0.505" d="M457.838 127.935C457.838 127.935 461.171 129.29 461.86 130.759C461.953 130.976 461.984 131.098 461.962 131.179C461.163 129.724 457.836 129.169 457.836 129.169L457.838 127.935Z" fill="white"/>
<path d="M175.271 111.438H173.176V113.849H175.271V111.438ZM172.802 111.438H170.707V113.849H172.802V111.438ZM167.863 111.438H165.768V113.849H167.863V111.438ZM165.356 111.438H163.261V113.849H165.356V111.438ZM175.271 114.28H173.176V116.691H175.271V114.28ZM172.802 114.28H170.706V116.691H172.802V114.28ZM165.356 114.28H163.261V116.691H165.356V114.28ZM162.888 114.28H160.792V116.691H162.888V114.28ZM175.271 117.121H173.176V119.532H175.271V117.121ZM172.802 117.121H170.706V119.532H172.802V117.121ZM162.888 117.121H160.792V119.532H162.888V117.121ZM160.418 117.121H158.323V119.532H160.418V117.121ZM175.271 100.027H173.176V102.439H175.271V100.027ZM172.802 100.027H170.706V102.439H172.802V100.027ZM170.333 100.027H168.238V102.439H170.333V100.027ZM167.863 100.027H165.768V102.439H167.863V100.027ZM165.356 100.027H163.261V102.439H165.356V100.027ZM162.887 100.027H160.792V102.439H162.887V100.027ZM175.271 102.87H173.176V105.281H175.271V102.87ZM172.801 102.87H170.706V105.281H172.801V102.87ZM162.887 102.87H160.792V105.281H162.887V102.87ZM160.418 102.87H158.322V105.281H160.418V102.87ZM175.271 105.712H173.176V108.123H175.271V105.712ZM172.801 105.712H170.706V108.123H172.801V105.712ZM162.887 105.712H160.792V108.123H162.887V105.712ZM160.418 105.712H158.322V108.123H160.418V105.712ZM175.271 108.554H173.176V110.965H175.271V108.554ZM172.801 108.554H170.706V110.965H172.801V108.554ZM170.333 108.554H168.238V110.965H170.333V108.554ZM167.863 108.554H165.768V110.965H167.863V108.554ZM165.356 108.554H163.26V110.965H165.356V108.554ZM162.887 108.554H160.792V110.965H162.887V108.554Z" fill="#002255"/>
<g filter="url(#filter4_f_1391_305)">
<path d="M425.57 27.7141C430.877 27.722 436.041 29.0823 440.304 31.5953C441.409 31.4686 442.523 31.4014 443.64 31.3941C448.002 31.3981 452.286 32.3162 456.06 34.0561C459.834 35.7959 462.965 38.296 465.136 41.3044C468.311 43.1302 470.896 45.5278 472.682 48.3008C474.467 51.0739 475.402 54.1437 475.408 57.259C475.408 59.8504 474.766 62.4164 473.519 64.8105C472.272 67.2047 470.444 69.38 468.139 71.2124C465.834 73.0447 463.098 74.4982 460.087 75.4899C457.076 76.4815 453.849 76.9918 450.59 76.9918C448.82 76.984 447.056 76.8256 445.329 76.5195C440.736 79.9645 434.664 81.8881 428.35 81.8984C424.23 81.8919 420.176 81.0698 416.556 79.5064C412.922 81.0752 408.854 81.8974 404.72 81.8984C401.352 81.8941 398.021 81.3449 394.928 80.2841C391.836 79.2233 389.048 77.6733 386.733 75.7283C380.388 75.4625 374.413 73.2717 370.039 69.6074C365.664 65.9431 363.224 61.0844 363.221 56.0323C363.227 51.5813 365.125 47.2625 368.607 43.7774C372.09 40.2924 376.951 37.8458 382.403 36.835C384.646 34.039 387.74 31.7375 391.397 30.1434C395.055 28.5492 399.159 27.7137 403.33 27.7141C407.199 27.7158 411.014 28.4369 414.471 29.8197C417.914 28.4419 421.715 27.721 425.57 27.7141Z" fill="white"/>
</g>
<g filter="url(#filter5_f_1391_305)">
<path d="M91.97 138.116C97.2767 138.125 102.44 139.485 106.703 141.998C107.809 141.871 108.923 141.804 110.04 141.796C114.403 141.8 118.688 142.718 122.463 144.458C126.237 146.197 129.369 148.698 131.54 151.707C134.714 153.533 137.299 155.931 139.084 158.704C140.868 161.477 141.802 164.547 141.808 167.662C141.808 170.253 141.166 172.819 139.919 175.214C138.672 177.608 136.843 179.783 134.539 181.616C132.234 183.448 129.498 184.902 126.487 185.893C123.476 186.885 120.249 187.395 116.99 187.395C115.222 187.387 113.46 187.229 111.734 186.923C107.139 190.369 101.065 192.293 94.7495 192.302C90.6291 192.295 86.5755 191.473 82.9546 189.91C79.3218 191.478 75.2536 192.301 71.1195 192.302C67.7522 192.298 64.4212 191.748 61.3294 190.688C58.2375 189.627 55.4495 188.077 53.135 186.132C46.7893 185.867 40.8135 183.676 36.439 180.012C32.0644 176.347 29.6244 171.488 29.6217 166.435C29.6275 161.984 31.5262 157.664 35.0094 154.179C38.4927 150.694 43.3558 148.247 48.8086 147.237C51.0512 144.442 54.1436 142.141 57.8001 140.547C61.4566 138.953 65.5594 138.117 69.7295 138.116C73.6 138.118 77.4164 138.839 80.8738 140.222C84.3166 138.845 88.116 138.124 91.97 138.116Z" fill="white"/>
</g>
<path d="M385.969 115.031L398.787 126.939L398.35 128.031C398.35 128.031 395.897 129.534 394.566 130.121C392.817 130.891 390.978 131.525 389.092 131.98C386.271 132.661 380.438 133.265 380.438 133.265L375.185 132.282C375.185 132.282 346.84 134.596 332.906 132.727C328.775 132.173 324.838 130.737 320.982 129.316C317.102 127.885 309.778 124.196 309.778 124.196L326.238 117.547L373.085 117.393L385.969 115.031Z" fill="#B7BEC8"/>
<path fill-rule="evenodd" clip-rule="evenodd" d="M386.124 114.494L373.038 116.893L326.139 117.048L308.566 124.147L309.552 124.643L309.777 124.197C309.552 124.643 309.552 124.643 309.552 124.643L309.553 124.644L309.636 124.685C309.691 124.713 309.772 124.753 309.876 124.805C310.084 124.909 310.386 125.059 310.761 125.244C311.509 125.613 312.548 126.12 313.709 126.671C316.025 127.772 318.844 129.061 320.809 129.785C324.656 131.203 328.644 132.661 332.838 133.223C339.853 134.164 350.463 134.05 359.289 133.705C363.709 133.532 367.692 133.301 370.57 133.113C372.009 133.019 373.172 132.936 373.976 132.876C374.378 132.847 374.689 132.823 374.901 132.806L375.142 132.787L375.157 132.786L380.416 133.77L380.488 133.762L380.555 133.755L380.747 133.735C380.912 133.717 381.152 133.69 381.449 133.657C382.042 133.589 382.862 133.492 383.771 133.374C385.581 133.138 387.769 132.814 389.209 132.466C391.125 132.003 392.992 131.361 394.766 130.578C395.459 130.273 396.426 129.738 397.205 129.289C397.598 129.063 397.949 128.856 398.201 128.705C398.328 128.629 398.429 128.568 398.5 128.525L398.581 128.476L398.609 128.458C398.609 128.458 398.61 128.458 398.349 128.032L398.609 128.458L398.751 128.371L399.378 126.806L386.124 114.494ZM397.947 127.691C397.88 127.731 397.793 127.784 397.688 127.846C397.439 127.995 397.093 128.2 396.706 128.423C395.926 128.872 395.001 129.382 394.363 129.663C392.64 130.423 390.829 131.046 388.974 131.494C387.592 131.827 385.453 132.146 383.641 132.382C382.739 132.5 381.925 132.596 381.336 132.663C381.041 132.697 380.803 132.723 380.639 132.74L380.457 132.76L375.21 131.778L375.143 131.784L375.184 132.282C375.143 131.784 375.143 131.784 375.143 131.784L375.142 131.784L375.062 131.79L374.823 131.809C374.613 131.825 374.302 131.849 373.902 131.879C373.101 131.939 371.941 132.022 370.505 132.115C367.633 132.303 363.659 132.534 359.25 132.706C350.421 133.051 339.891 133.16 332.971 132.232C328.904 131.686 325.017 130.27 321.154 128.847C319.238 128.14 316.455 126.869 314.138 125.768C312.983 125.219 311.948 124.714 311.203 124.347C311.13 124.311 311.061 124.277 310.994 124.244L326.335 118.047L373.131 117.893L385.811 115.568L398.194 127.072L397.947 127.691Z" fill="black"/>
<path fill-rule="evenodd" clip-rule="evenodd" d="M350.638 117.373L353.139 133.21L354.621 132.976L352.12 117.139L350.638 117.373Z" fill="black"/>
<g filter="url(#filter6_f_1391_305)">
<path d="M332.321 118.778L313.47 125.144C312.34 124.591 311.56 124.201 311.56 124.201L327.63 117.551C330.095 117.551 336.41 118.778 332.321 118.778Z" fill="white"/>
</g>
<path d="M323.967 116.766C323.967 116.766 313.235 121.196 308.434 122.497C307.594 122.725 306.627 122.837 305.801 122.575C304.572 122.185 302.863 120.287 302.863 120.287L321.937 115.135L323.967 116.766Z" fill="#B7BEC8"/>
<path fill-rule="evenodd" clip-rule="evenodd" d="M322.053 114.586L301.948 120.017L302.492 120.622L302.864 120.287C302.492 120.622 302.492 120.622 302.492 120.622L302.494 120.624L302.499 120.629L302.515 120.646C302.528 120.661 302.548 120.683 302.574 120.711C302.625 120.766 302.699 120.844 302.792 120.939C302.977 121.128 303.237 121.386 303.537 121.656C304.116 122.178 304.922 122.82 305.65 123.051C306.611 123.356 307.689 123.217 308.565 122.98C310.995 122.321 314.901 120.879 318.182 119.61C319.826 118.974 321.32 118.379 322.402 117.942C322.944 117.724 323.382 117.546 323.686 117.422C323.838 117.36 323.956 117.312 324.036 117.279L324.158 117.229C324.158 117.229 324.158 117.228 323.967 116.766L324.158 117.229L324.939 116.906L322.053 114.586ZM322.993 116.625C322.728 116.732 322.403 116.864 322.029 117.015C320.949 117.45 319.46 118.043 317.821 118.677C314.535 119.949 310.675 121.372 308.303 122.015C307.501 122.232 306.645 122.317 305.953 122.098C305.452 121.939 304.789 121.438 304.206 120.913C304.066 120.787 303.934 120.663 303.816 120.548L321.823 115.684L322.993 116.625Z" fill="black"/>
<path d="M402.356 124.991L400.429 125.841L399.125 125.403L386.055 113.459L387.557 112.806L402.356 124.991Z" fill="#B7BEC8"/>
<path fill-rule="evenodd" clip-rule="evenodd" d="M387.638 112.226L385.148 113.308L398.866 125.843L400.453 126.377L403.301 125.121L387.638 112.226ZM387.475 113.387L401.412 124.861L400.404 125.305L399.385 124.963L386.962 113.61L387.475 113.387Z" fill="black"/>
<path fill-rule="evenodd" clip-rule="evenodd" d="M381.379 132.75L378.044 116.564L376.085 116.968L379.42 133.154L381.379 132.75Z" fill="black"/>
<path fill-rule="evenodd" clip-rule="evenodd" d="M343.778 133.323L341.014 117.447L339.044 117.79L341.808 133.666L343.778 133.323Z" fill="black"/>
<path d="M380.561 133.142L384.599 152.708L375.793 153.114L343.153 138.219L342.781 133.421L374.304 132.195L379.268 133.29L380.561 133.142Z" fill="#002255"/>
<path fill-rule="evenodd" clip-rule="evenodd" d="M374.349 131.693L342.242 132.941L342.678 138.551L375.696 153.619L385.207 153.181L380.958 132.593L379.295 132.784L374.349 131.693ZM374.259 132.697L379.242 133.796L380.164 133.691L383.991 152.236L375.891 152.609L343.629 137.886L343.32 133.9L374.259 132.697Z" fill="black"/>
<g opacity="0.5" filter="url(#filter7_f_1391_305)">
<path d="M148.646 121.428C148.646 121.428 149.299 123.271 149.925 124.044C150.964 125.326 152.344 126.438 153.896 127.22C155.323 127.939 157.007 128.168 158.604 128.509C164.241 129.712 175.739 131.163 175.739 131.163L194.106 133.135L233.821 136.858L279.99 141.786L316.279 145.006L323.898 116.552L358.028 117.056L386.547 113.53C386.547 113.53 401.945 149.317 405.065 148.512C406.819 148.059 409.235 144.831 409.235 144.831C409.235 144.831 411.945 148.295 415.638 148.862C419.264 149.418 449.024 145.949 449.024 145.949L450.636 143.868L451.257 140.253L452.002 128.972L454.068 127.569L454.324 127.623L454.463 132.212L454.258 136.026L452.002 137.558L451.257 148.839L450.636 152.455L449.024 154.535L413.652 157.711L409.93 153.33L407.447 156.835L384.983 158.149H364.63L353.088 157.492L321.318 154.206L279.989 150.373L233.821 145.444L194.106 141.721L175.739 139.749L158.779 136.631C158.779 136.631 155.505 136.237 154.07 135.574C152.551 134.871 151.21 133.808 150.188 132.592C148.82 130.964 147.369 127.044 147.369 127.044L148.646 121.428Z" fill="black"/>
</g>
<g filter="url(#filter8_f_1391_305)">
<path d="M321.937 115.135L323.163 116.105L304.557 121.129C304.557 121.129 304.992 121.11 303.602 120.497L321.937 115.135Z" fill="white"/>
</g>
<g filter="url(#filter9_f_1391_305)">
<path d="M387.492 112.958L401.582 124.946L400.611 125.313L387.622 114.118L386.693 114.673L385.762 113.788L387.492 112.958Z" fill="white"/>
</g>
<path d="M385.724 109.198C384.253 108.294 382.343 108.089 380.574 107.829C375.694 107.111 370.689 107.245 365.743 107.336C359.229 107.456 352.715 107.932 346.258 108.705C341.165 109.315 336.1 110.166 331.117 111.279C328.048 111.964 324.513 111.962 322.368 114.017C321.735 114.622 321.134 115.475 321.437 116.207C322.031 117.643 324.31 118.009 325.967 118.452C331.585 119.957 337.658 119.554 343.528 119.657C352.228 119.811 365.559 118.94 369.615 118.79C372.337 118.69 378.36 118.156 382.395 116.774C384.212 116.151 386.308 115.477 387.338 114.017C387.854 113.284 387.909 112.274 387.648 111.443C387.364 110.539 386.597 109.734 385.724 109.198Z" fill="#002255"/>
<path fill-rule="evenodd" clip-rule="evenodd" d="M366.425 107.823C371.158 107.734 375.889 107.645 380.501 108.323L380.574 107.829L380.501 108.323C380.657 108.346 380.813 108.369 380.968 108.391C382.62 108.629 384.217 108.859 385.463 109.624L385.463 109.624C386.272 110.121 386.935 110.841 387.171 111.593L387.171 111.593C387.398 112.315 387.334 113.154 386.929 113.729L387.338 114.017L386.929 113.729C386.484 114.36 385.788 114.848 384.942 115.26C384.157 115.643 383.286 115.941 382.429 116.234M382.233 116.301C378.27 117.658 372.308 118.191 369.597 118.291C368.624 118.327 367.13 118.403 365.3 118.497C359.444 118.798 350.152 119.274 343.537 119.157C342.283 119.135 341.028 119.136 339.775 119.136C335.102 119.138 330.465 119.14 326.096 117.97C325.854 117.904 325.606 117.843 325.359 117.781C324.718 117.622 324.073 117.461 323.482 117.235C322.661 116.92 322.114 116.535 321.899 116.016C321.825 115.837 321.841 115.601 321.998 115.289C322.154 114.979 322.419 114.66 322.714 114.378L322.368 114.017L322.714 114.378C323.687 113.445 324.999 112.958 326.505 112.622C327.255 112.455 328.037 112.329 328.836 112.2L328.84 112.2C329.633 112.072 330.443 111.942 331.226 111.767C336.192 110.658 341.241 109.809 346.318 109.201C352.759 108.43 359.257 107.956 365.753 107.836C365.977 107.832 366.201 107.827 366.425 107.823M366.432 106.823C366.199 106.827 365.966 106.832 365.734 106.836C359.202 106.957 352.671 107.434 346.199 108.208C341.09 108.82 336.009 109.675 331.008 110.791C330.258 110.958 329.477 111.084 328.677 111.213L328.666 111.215C327.876 111.342 327.068 111.472 326.287 111.646C324.722 111.995 323.194 112.533 322.022 113.656C321.684 113.979 321.332 114.389 321.105 114.84C320.879 115.289 320.746 115.846 320.975 116.398C321.355 117.316 322.244 117.831 323.124 118.169C323.776 118.419 324.516 118.603 325.174 118.767C325.408 118.825 325.632 118.88 325.838 118.935C330.347 120.143 335.157 120.14 339.847 120.137C341.082 120.137 342.309 120.136 343.519 120.157C350.175 120.275 359.542 119.794 365.393 119.494C367.205 119.401 368.681 119.325 369.634 119.29C372.366 119.189 378.45 118.653 382.557 117.247L382.557 117.247C382.625 117.223 382.694 117.2 382.763 117.176C383.608 116.888 384.536 116.571 385.381 116.159C386.295 115.713 387.162 115.134 387.746 114.305L387.746 114.305C388.374 113.414 388.421 112.233 388.125 111.293L387.648 111.443L388.125 111.293C387.793 110.236 386.922 109.346 385.986 108.772C384.553 107.891 382.744 107.634 381.135 107.404C380.97 107.381 380.807 107.358 380.647 107.334L380.647 107.334C375.95 106.643 371.143 106.734 366.432 106.823Z" fill="black"/>
<g opacity="0.5" filter="url(#filter10_f_1391_305)">
<path d="M387.546 111.185C387.582 111.27 387.618 111.355 387.645 111.441C387.906 112.273 387.418 113.205 386.901 113.938C385.871 115.398 384.209 115.843 382.392 116.465C378.358 117.848 372.377 118.381 369.655 118.482C365.599 118.631 352.268 119.502 343.568 119.349C337.698 119.245 331.712 119.649 326.094 118.144C324.437 117.7 322.289 117.641 321.695 116.206C321.461 115.641 321.507 115.008 321.948 114.469C322.883 115.33 324.625 115.639 325.964 115.997C331.582 117.502 337.654 117.099 343.525 117.202C352.225 117.356 365.555 116.485 369.612 116.335C372.334 116.234 378.358 115.701 382.392 114.319C384.209 113.696 386.306 113.022 387.336 111.561C387.419 111.443 387.486 111.316 387.546 111.185Z" fill="black"/>
</g>
<g opacity="0.67" filter="url(#filter11_f_1391_305)">
<path d="M371.324 107.53C374.427 107.531 377.527 107.704 380.576 108.152C382.345 108.413 383.972 108.656 385.096 109.196C386.03 109.644 387.04 110.634 387.324 111.538C387.543 112.235 387.58 112.768 387.268 113.447C386.931 112.648 386.515 112.134 385.726 111.649C384.254 110.745 382.345 110.54 380.576 110.28C375.696 109.563 370.691 109.696 365.745 109.788C359.231 109.908 352.717 110.384 346.26 111.157C341.167 111.767 336.101 112.618 331.119 113.73C328.049 114.415 324.972 114.049 322.826 116.104C322.681 116.243 322.497 116.724 322.366 116.884C322.143 116.679 321.9 116.405 321.786 116.129C321.483 115.397 321.911 114.908 322.543 114.303C324.689 112.248 328.049 112.288 331.118 111.602C336.101 110.49 341.167 109.639 346.26 109.029C352.717 108.256 359.23 107.723 365.745 107.603C367.599 107.568 369.462 107.529 371.324 107.53L371.324 107.53Z" fill="white"/>
</g>
<path fill-rule="evenodd" clip-rule="evenodd" d="M382.716 107.854C382.716 107.854 382.716 107.854 382.243 108.014C381.769 108.174 381.769 108.174 381.769 108.174L381.769 108.174L381.769 108.175L381.771 108.182L381.781 108.213C381.79 108.241 381.802 108.283 381.817 108.335C381.846 108.44 381.881 108.582 381.907 108.735C381.934 108.89 381.949 109.042 381.945 109.17C381.942 109.233 381.936 109.282 381.927 109.319C381.923 109.337 381.918 109.35 381.915 109.359C381.912 109.367 381.909 109.37 381.909 109.371C381.909 109.371 381.909 109.371 381.909 109.371L381.909 109.371C381.678 109.731 381.254 109.999 380.663 110.223C380.261 110.376 379.843 110.49 379.413 110.606C379.2 110.664 378.984 110.723 378.766 110.787L378.766 110.787C376.154 111.559 373.409 111.79 370.611 112.024C369.562 112.112 368.504 112.201 367.444 112.319C362.72 112.845 357.998 113.342 353.26 113.555C352.159 113.605 351.057 113.659 349.956 113.713C342.913 114.057 335.877 114.401 328.941 113.635C328.705 113.609 328.456 113.598 328.221 113.587L328.173 113.585C327.917 113.573 327.678 113.56 327.453 113.533C327.002 113.477 326.719 113.371 326.558 113.201C326.555 113.192 326.552 113.176 326.549 113.151C326.542 113.082 326.546 112.989 326.56 112.883C326.574 112.78 326.595 112.683 326.613 112.609C326.622 112.573 326.63 112.544 326.635 112.525L326.641 112.504L326.642 112.501C326.642 112.501 326.642 112.501 326.165 112.351C325.688 112.201 325.688 112.201 325.688 112.201L325.688 112.202L325.688 112.202L325.688 112.203L325.687 112.207L325.684 112.217C325.681 112.225 325.678 112.237 325.673 112.252C325.665 112.28 325.654 112.321 325.642 112.37C325.618 112.466 325.589 112.601 325.569 112.751C325.549 112.897 325.537 113.076 325.555 113.253C325.572 113.421 325.623 113.653 325.79 113.842C326.204 114.315 326.814 114.462 327.331 114.525C327.599 114.558 327.874 114.572 328.126 114.583L328.165 114.585C328.409 114.597 328.629 114.607 328.831 114.629C335.853 115.404 342.977 115.056 350.014 114.711C351.113 114.657 352.211 114.604 353.305 114.554C358.079 114.339 362.83 113.839 367.555 113.313C368.553 113.201 369.573 113.116 370.601 113.03C373.433 112.793 376.332 112.55 379.05 111.746C379.223 111.695 379.413 111.643 379.613 111.589C380.068 111.465 380.57 111.328 381.018 111.158C381.672 110.909 382.345 110.545 382.751 109.91M382.716 107.854L382.716 107.854ZM382.716 107.854L382.716 107.855ZM382.716 107.855L382.717 107.856ZM382.717 107.856L382.718 107.86ZM382.718 107.86L382.722 107.873ZM382.722 107.873C382.726 107.883 382.73 107.898 382.736 107.916ZM382.736 107.916C382.748 107.953 382.763 108.005 382.781 108.069ZM382.781 108.069C382.816 108.195 382.859 108.371 382.893 108.565ZM382.893 108.565C382.926 108.757 382.952 108.983 382.944 109.204ZM382.944 109.204C382.937 109.416 382.898 109.682 382.751 109.91Z" fill="black"/>
<path d="M376.884 114.908C376.994 114.322 374.997 114.326 374.866 114.908C372.421 125.751 368.196 155.412 368.196 155.412C368.196 155.412 344.403 122.185 340.027 115.915C339.759 115.531 338.35 116.076 338.623 116.457C343.005 122.588 367.355 158.119 367.355 158.119H370.163C370.163 158.119 374.754 126.284 376.884 114.908Z" fill="#666666"/>
<path fill-rule="evenodd" clip-rule="evenodd" d="M376.356 115.013C375.287 120.76 373.628 131.433 372.231 140.705C371.523 145.396 370.883 149.731 370.419 152.894C370.187 154.475 370 155.764 369.87 156.657C369.811 157.062 369.764 157.386 369.73 157.619H367.619L366.713 156.297C366.038 155.314 365.07 153.902 363.894 152.188C361.543 148.761 358.362 144.128 355.044 139.304C348.576 129.897 341.581 119.755 339.202 116.409C339.232 116.395 339.265 116.38 339.302 116.366C339.438 116.313 339.572 116.286 339.665 116.284C339.668 116.284 339.671 116.284 339.674 116.284C341.928 119.509 348.907 129.295 355.346 138.305C358.594 142.851 361.705 147.2 364.004 150.413C365.153 152.02 366.1 153.342 366.759 154.263L367.79 155.703C367.79 155.703 367.79 155.703 368.196 155.412C368.691 155.482 368.691 155.482 368.691 155.482L368.739 155.147C368.771 154.927 368.817 154.604 368.877 154.188C368.998 153.356 369.172 152.155 369.389 150.681C369.823 147.732 370.428 143.687 371.108 139.303C372.465 130.565 374.121 120.505 375.338 115.086C375.355 115.077 375.382 115.065 375.421 115.051C375.557 115.002 375.756 114.97 375.966 114.97C376.125 114.97 376.26 114.988 376.356 115.013ZM368.196 155.412L368.691 155.482L368.516 156.717L367.79 155.703L368.196 155.412ZM367.878 154.109C367.882 154.088 367.885 154.066 367.888 154.045C368.008 153.212 368.183 152.011 368.4 150.535C368.834 147.584 369.439 143.536 370.12 139.149C371.481 130.382 373.151 120.239 374.378 114.798C374.472 114.384 374.851 114.193 375.083 114.109C375.355 114.012 375.673 113.97 375.965 113.97C376.253 113.97 376.569 114.01 376.827 114.118C376.955 114.172 377.107 114.258 377.223 114.401C377.352 114.561 377.418 114.772 377.376 115C376.312 120.678 374.634 131.471 373.219 140.854C372.513 145.543 371.872 149.877 371.409 153.039C371.177 154.62 370.989 155.908 370.86 156.8C370.795 157.247 370.744 157.594 370.71 157.83L370.658 158.19C370.658 158.19 370.658 158.19 370.163 158.119L370.658 158.19L370.596 158.619H367.092L366.943 158.401L367.355 158.119C366.943 158.401 366.943 158.401 366.943 158.401L365.888 156.863C365.214 155.879 364.245 154.467 363.07 152.754C360.719 149.327 357.538 144.695 354.22 139.87C347.583 130.219 340.404 119.809 338.216 116.748C338.095 116.579 338.06 116.377 338.109 116.185C338.152 116.016 338.251 115.889 338.334 115.805C338.501 115.638 338.731 115.514 338.942 115.433C339.157 115.349 339.409 115.289 339.647 115.284C339.849 115.281 340.218 115.316 340.437 115.629C342.623 118.761 349.663 128.632 356.159 137.724C359.407 142.269 362.518 146.618 364.817 149.831C365.966 151.438 366.913 152.76 367.572 153.681L367.878 154.109Z" fill="black"/>
<path d="M456.205 95.7229C457.214 95.7406 457.323 119.517 457.289 131.427C457.255 142.977 456.55 166.037 456.039 166.037C455.021 166.037 455.015 142.899 455.038 131.318C455.062 119.442 455.017 95.7021 456.205 95.7229Z" fill="url(#paint0_linear_1391_305)"/>
<path fill-rule="evenodd" clip-rule="evenodd" d="M385.753 158.124C385.753 158.124 384.116 161.728 383.736 163.627C383.347 165.57 383.488 169.541 383.488 169.541L377.283 170.199L368.595 158.151L385.753 158.124Z" fill="#FFD42A"/>
<path fill-rule="evenodd" clip-rule="evenodd" d="M386.529 157.622L367.619 157.652L377.046 170.726L384.004 169.99L383.987 169.524L383.987 169.513L383.986 169.481C383.985 169.452 383.984 169.409 383.982 169.353C383.979 169.242 383.975 169.081 383.972 168.882C383.965 168.482 383.959 167.93 383.966 167.318C383.979 166.081 384.042 164.645 384.226 163.725C384.406 162.827 384.894 161.49 385.351 160.349C385.577 159.786 385.792 159.28 385.95 158.915C386.029 158.733 386.093 158.586 386.138 158.485C386.161 158.435 386.178 158.396 386.19 158.37L386.204 158.34L386.529 157.622ZM384.986 158.625C384.831 158.985 384.632 159.456 384.423 159.977C383.967 161.114 383.446 162.529 383.246 163.529C383.041 164.551 382.979 166.073 382.966 167.307C382.959 167.931 382.965 168.493 382.972 168.899C382.973 168.968 382.974 169.033 382.976 169.093L377.518 169.671L369.571 158.649L384.986 158.625Z" fill="black"/>
<path opacity="0.5" fill-rule="evenodd" clip-rule="evenodd" d="M385.753 158.124C385.753 158.124 384.116 161.728 383.736 163.627C383.347 165.57 383.488 169.541 383.488 169.541L377.283 170.199L368.595 158.151L385.753 158.124Z" fill="black"/>
<path opacity="0.99" d="M382.5 186.55C377.064 186.55 372.658 182.514 372.658 177.536C372.658 172.557 377.064 168.521 382.5 168.521C387.936 168.521 392.343 172.557 392.343 177.536C392.343 182.514 387.936 186.55 382.5 186.55Z" fill="#212121"/>
<path opacity="0.99" fill-rule="evenodd" clip-rule="evenodd" d="M382.5 169.145C387.644 169.145 391.719 172.952 391.719 177.536C391.719 182.119 387.644 185.927 382.5 185.927C377.356 185.927 373.282 182.119 373.282 177.536C373.282 172.952 377.356 169.145 382.5 169.145ZM392.967 177.536C392.967 172.162 388.228 167.897 382.5 167.897C376.773 167.897 372.034 172.162 372.034 177.536C372.034 182.909 376.773 187.174 382.5 187.174C388.228 187.174 392.967 182.909 392.967 177.536Z" fill="black"/>
<g opacity="0.99" filter="url(#filter12_f_1391_305)">
<path d="M382.501 169.099C383.712 169.099 384.91 169.317 386.028 169.741C387.146 170.165 388.162 170.787 389.018 171.571C389.873 172.354 390.552 173.285 391.015 174.309C391.478 175.333 391.717 176.43 391.717 177.539C391.717 178.647 391.478 179.744 391.015 180.768C390.552 181.792 389.873 182.723 389.018 183.507C388.162 184.29 387.146 184.912 386.028 185.336C384.91 185.76 383.712 185.978 382.501 185.978C381.291 185.978 380.093 185.76 378.975 185.336C377.857 184.912 376.841 184.29 375.985 183.507C375.129 182.723 374.451 181.792 373.987 180.768C373.524 179.744 373.286 178.647 373.286 177.539C373.286 176.43 373.524 175.333 373.987 174.309C374.451 173.285 375.129 172.354 375.985 171.571C376.841 170.787 377.857 170.165 378.975 169.741C380.093 169.317 381.291 169.099 382.501 169.099ZM382.501 171.234C381.597 171.234 380.702 171.397 379.867 171.714C379.032 172.031 378.273 172.495 377.634 173.081C376.995 173.666 376.488 174.361 376.142 175.126C375.796 175.891 375.618 176.711 375.618 177.539C375.618 178.367 375.796 179.186 376.142 179.951C376.488 180.716 376.995 181.411 377.634 181.996C378.274 182.581 379.032 183.046 379.867 183.362C380.702 183.679 381.598 183.842 382.501 183.842C383.405 183.842 384.3 183.679 385.135 183.362C385.97 183.046 386.729 182.581 387.368 181.996C388.007 181.411 388.514 180.716 388.86 179.951C389.206 179.186 389.385 178.367 389.385 177.539C389.385 176.711 389.207 175.891 388.861 175.126C388.515 174.361 388.008 173.666 387.369 173.081C386.73 172.495 385.971 172.031 385.136 171.714C384.3 171.397 383.405 171.234 382.501 171.234Z" fill="url(#paint1_linear_1391_305)"/>
</g>
<path opacity="0.99" d="M382.501 181.977C379.822 181.977 377.651 179.989 377.651 177.535C377.651 175.082 379.822 173.094 382.501 173.094C385.179 173.094 387.351 175.082 387.351 177.535C387.351 179.989 385.179 181.977 382.501 181.977Z" fill="#333333"/>
<path opacity="0.99" fill-rule="evenodd" clip-rule="evenodd" d="M382.501 173.594C384.945 173.594 386.851 175.399 386.851 177.535C386.851 179.672 384.945 181.477 382.501 181.477C380.056 181.477 378.151 179.672 378.151 177.535C378.151 175.399 380.056 173.594 382.501 173.594ZM387.851 177.535C387.851 174.766 385.413 172.594 382.501 172.594C379.588 172.594 377.151 174.766 377.151 177.535C377.151 180.305 379.588 182.477 382.501 182.477C385.413 182.477 387.851 180.305 387.851 177.535Z" fill="black"/>
<path opacity="0.99" d="M382.542 178.324C381.974 178.324 381.514 177.902 381.514 177.382C381.514 176.862 381.974 176.44 382.542 176.44C383.11 176.44 383.57 176.862 383.57 177.382C383.57 177.902 383.11 178.324 382.542 178.324Z" fill="#E6E6E6"/>
<path opacity="0.99" fill-rule="evenodd" clip-rule="evenodd" d="M382.542 176.841C382.922 176.841 383.17 177.115 383.17 177.382C383.17 177.649 382.922 177.924 382.542 177.924C382.161 177.924 381.913 177.649 381.913 177.382C381.913 177.115 382.161 176.841 382.542 176.841ZM383.97 177.382C383.97 176.609 383.297 176.041 382.542 176.041C381.787 176.041 381.113 176.609 381.113 177.382C381.113 178.156 381.787 178.724 382.542 178.724C383.297 178.724 383.97 178.156 383.97 177.382Z" fill="black"/>
<path fill-rule="evenodd" clip-rule="evenodd" d="M184.426 140.735L183.681 142.269C183.681 142.269 179.456 142.244 177.352 142.378C176.021 142.463 174.665 142.499 173.38 142.816C171.241 143.345 169.203 144.215 167.299 145.226C166.086 145.87 163.948 147.526 163.948 147.526V145.336C163.948 145.336 168.449 142.131 171.146 141.393C172.847 140.927 176.483 141.174 176.483 141.174L177.041 139.914L184.426 140.735Z" fill="#002255"/>
<path fill-rule="evenodd" clip-rule="evenodd" d="M176.732 139.377L176.166 140.655C176.09 140.651 176.005 140.647 175.909 140.643C175.537 140.627 175.023 140.61 174.454 140.608C173.335 140.605 171.938 140.657 171.014 140.91C169.59 141.301 167.736 142.322 166.275 143.215C165.536 143.666 164.883 144.094 164.414 144.408C164.18 144.566 163.992 144.695 163.861 144.786C163.796 144.831 163.746 144.866 163.711 144.89L163.672 144.918L163.662 144.926L163.659 144.927L163.658 144.928C163.658 144.928 163.658 144.928 163.948 145.336L163.658 144.928L163.448 145.078V148.546L164.254 147.921L164.26 147.917L164.277 147.903L164.346 147.851C164.406 147.805 164.493 147.738 164.602 147.657C164.819 147.493 165.121 147.268 165.461 147.023C166.148 146.528 166.96 145.972 167.533 145.668C169.413 144.67 171.411 143.818 173.5 143.302C174.543 143.044 175.635 142.98 176.772 142.914C176.974 142.902 177.178 142.89 177.383 142.877C178.42 142.811 179.99 142.784 181.309 142.773C181.967 142.768 182.56 142.767 182.988 142.767C183.202 142.767 183.374 142.768 183.493 142.768L183.677 142.769C183.677 142.769 183.678 142.769 183.681 142.269L183.677 142.769L183.993 142.771L185.185 140.317L176.732 139.377ZM183.368 141.768C183.264 141.767 183.136 141.767 182.988 141.767C182.558 141.767 181.963 141.768 181.301 141.773C179.982 141.784 178.387 141.811 177.32 141.879C177.126 141.892 176.93 141.903 176.732 141.914C175.598 141.98 174.401 142.049 173.26 142.331C171.069 142.873 168.993 143.761 167.064 144.784C166.424 145.124 165.562 145.718 164.876 146.212C164.725 146.321 164.581 146.426 164.448 146.524V145.596C164.574 145.509 164.752 145.386 164.972 145.238C165.432 144.929 166.073 144.51 166.796 144.068C168.26 143.174 170.005 142.224 171.278 141.875C172.055 141.662 173.326 141.605 174.45 141.608C175.003 141.61 175.504 141.626 175.866 141.642C176.048 141.65 176.194 141.657 176.295 141.663C176.345 141.666 176.384 141.668 176.41 141.67L176.439 141.672L176.448 141.672L176.798 141.696L177.35 140.452L183.666 141.154L183.368 141.768Z" fill="black"/>
<path opacity="0.99" fill-rule="evenodd" clip-rule="evenodd" d="M382.5 169.145C387.644 169.145 391.719 172.952 391.719 177.536C391.719 182.119 387.644 185.927 382.5 185.927C377.356 185.927 373.282 182.119 373.282 177.536C373.282 172.952 377.356 169.145 382.5 169.145ZM392.967 177.536C392.967 172.162 388.228 167.897 382.5 167.897C376.773 167.897 372.034 172.162 372.034 177.536C372.034 182.909 376.773 187.174 382.5 187.174C388.228 187.174 392.967 182.909 392.967 177.536Z" fill="black"/>
<path opacity="0.506" fill-rule="evenodd" clip-rule="evenodd" d="M184.085 140.699L184.423 140.734L183.684 142.152C183.684 142.152 179.497 142.129 177.412 142.253C176.093 142.331 174.75 142.364 173.477 142.658C171.356 143.147 169.337 143.951 167.45 144.885C166.249 145.48 164.129 147.012 164.129 147.012V146.33C164.129 146.33 166.249 144.798 167.45 144.203C169.337 143.269 171.357 142.464 173.477 141.975C174.75 141.681 176.093 141.648 177.412 141.569C179.497 141.445 183.684 141.468 183.684 141.468L184.085 140.699Z" fill="black"/>
<path fill-rule="evenodd" clip-rule="evenodd" d="M177.361 85.3337L175.915 139.787L177.414 139.827L178.822 86.8375L193.341 86.8743L193.345 85.3743L177.361 85.3337Z" fill="black"/>
<path fill-rule="evenodd" clip-rule="evenodd" d="M179.505 91.859L185.666 124.639L186.118 140.785L184.111 140.624L183.804 123.544L178.095 92.1102L178.026 88.6306L179.505 91.859Z" fill="#4D4D4D"/>
<path fill-rule="evenodd" clip-rule="evenodd" d="M178.479 88.4224L177.525 88.6407L177.595 92.1603L183.304 123.593L183.618 141.086L186.633 141.328L186.164 124.585L179.985 91.7065L178.479 88.4224ZM179.025 92.0117L185.166 124.692L185.602 140.242L184.602 140.162L184.302 123.494L178.593 92.0603L178.573 91.026L179.025 92.0117Z" fill="black"/>
<path opacity="0.99" d="M182.819 124.728H211.239C211.619 124.728 211.927 124.999 211.927 125.335V125.942C211.927 126.277 211.619 126.549 211.239 126.549H182.819C182.439 126.549 182.131 126.277 182.131 125.942V125.335C182.131 124.999 182.439 124.728 182.819 124.728Z" fill="#022354"/>
<path opacity="0.99" fill-rule="evenodd" clip-rule="evenodd" d="M211.394 125.28C211.424 125.307 211.427 125.327 211.427 125.335V125.942C211.427 125.95 211.424 125.97 211.394 125.996C211.364 126.024 211.31 126.049 211.239 126.049H182.819C182.748 126.049 182.695 126.024 182.664 125.996C182.634 125.97 182.631 125.95 182.631 125.942V125.335C182.631 125.327 182.634 125.307 182.664 125.28C182.695 125.253 182.748 125.228 182.819 125.228H211.239C211.31 125.228 211.363 125.253 211.394 125.28ZM212.427 125.335C212.427 124.666 211.834 124.228 211.239 124.228H182.819C182.224 124.228 181.631 124.666 181.631 125.335V125.942C181.631 126.61 182.224 127.049 182.819 127.049H211.239C211.834 127.049 212.427 126.61 212.427 125.942V125.335Z" fill="black"/>
<path opacity="0.99" d="M159.047 124.912H179.819C180.037 124.912 180.214 125.249 180.214 125.665V125.916C180.214 126.332 180.037 126.669 179.819 126.669H159.047C158.829 126.669 158.653 126.332 158.653 125.916V125.665C158.653 125.249 158.829 124.912 159.047 124.912Z" fill="#002255"/>
<path opacity="0.99" fill-rule="evenodd" clip-rule="evenodd" d="M179.676 125.412C179.696 125.47 179.714 125.556 179.714 125.665V125.916C179.714 126.024 179.696 126.111 179.676 126.169H159.191C159.171 126.111 159.153 126.024 159.153 125.916V125.665C159.153 125.556 159.171 125.47 159.191 125.412H179.676ZM180.541 124.9C180.438 124.703 180.208 124.412 179.819 124.412H159.047C158.659 124.412 158.429 124.703 158.325 124.9C158.21 125.122 158.153 125.393 158.153 125.665V125.916C158.153 126.188 158.21 126.459 158.325 126.68C158.429 126.878 158.659 127.169 159.047 127.169H179.819C180.208 127.169 180.438 126.878 180.541 126.68C180.657 126.459 180.714 126.188 180.714 125.916V125.665C180.714 125.393 180.657 125.122 180.541 124.9Z" fill="black"/>
<path fill-rule="evenodd" clip-rule="evenodd" d="M155.068 100.93C155.068 100.93 152.995 100.652 152.224 101.144C151.087 101.869 148.726 107.692 149.056 109.287C149.254 110.249 151.706 111.055 151.706 111.055L155.068 100.93Z" fill="#002255"/>
<path fill-rule="evenodd" clip-rule="evenodd" d="M154.39 101.375L151.393 110.4C151.187 110.317 150.936 110.208 150.684 110.081C150.38 109.928 150.091 109.756 149.874 109.578C149.641 109.388 149.564 109.251 149.551 109.185C149.525 109.062 149.52 108.858 149.553 108.566C149.585 108.281 149.65 107.942 149.743 107.565C149.929 106.811 150.22 105.933 150.56 105.075C150.899 104.218 151.282 103.393 151.644 102.745C151.826 102.42 151.998 102.147 152.153 101.939C152.316 101.721 152.433 101.61 152.496 101.57M151.707 111.055L151.549 111.534L152.028 111.692L155.74 100.511L155.136 100.43L155.069 100.93C155.136 100.43 155.136 100.43 155.136 100.43L155.134 100.43L155.128 100.429L155.108 100.426C155.091 100.424 155.067 100.421 155.036 100.418C154.974 100.411 154.886 100.401 154.778 100.392C154.563 100.373 154.266 100.352 153.943 100.348C153.621 100.344 153.261 100.356 152.923 100.404C152.596 100.45 152.237 100.538 151.953 100.719C151.732 100.86 151.526 101.09 151.344 101.335C151.154 101.591 150.957 101.904 150.763 102.252C150.374 102.949 149.973 103.816 149.621 104.704C149.27 105.592 148.962 106.514 148.762 107.323C148.663 107.727 148.588 108.111 148.55 108.453C148.512 108.787 148.505 109.114 148.562 109.389C148.648 109.804 148.952 110.128 149.235 110.36C149.533 110.603 149.894 110.814 150.229 110.982C150.567 111.153 150.895 111.29 151.138 111.384C151.26 111.432 151.361 111.469 151.433 111.494C151.468 111.507 151.497 111.517 151.517 111.523L151.54 111.531L151.546 111.533L151.548 111.534C151.549 111.534 151.549 111.534 151.707 111.055ZM154.39 101.375C154.249 101.366 154.092 101.36 153.929 101.358C153.636 101.354 153.333 101.365 153.065 101.403C152.787 101.443 152.598 101.505 152.496 101.57M155.002 101.431C155.002 101.431 155.002 101.431 155.002 101.431Z" fill="black"/>
<path opacity="0.5" fill-rule="evenodd" clip-rule="evenodd" d="M154.763 100.899C154.936 100.918 155.068 100.93 155.068 100.93L151.705 111.056C151.705 111.056 149.251 110.253 149.057 109.29C148.938 108.738 149.161 107.683 149.522 106.511C149.522 106.634 149.529 106.744 149.55 106.836C149.752 107.799 152.205 108.603 152.205 108.603L154.763 100.899Z" fill="black"/>
<path opacity="0.5" fill-rule="evenodd" clip-rule="evenodd" d="M153.686 101.163C154.184 101.17 154.588 101.191 154.588 101.191C154.338 102.053 154.007 102.92 153.843 103.487C153.843 103.487 151.8 103.171 151.176 103.61C151.097 103.665 151.008 103.764 150.917 103.882C151.402 102.69 152.023 101.698 152.394 101.437C152.706 101.218 153.189 101.156 153.686 101.163Z" fill="white"/>
<path opacity="0.5" d="M182.264 125.414V125.473C182.264 125.668 182.571 125.825 182.953 125.825H211.372C211.608 125.825 211.806 125.76 211.93 125.668V125.962C211.93 126.157 211.623 126.314 211.241 126.314H182.822C182.441 126.314 182.134 126.157 182.134 125.962V125.609C182.134 125.536 182.189 125.471 182.264 125.414Z" fill="black"/>
<path opacity="0.99" d="M159.047 124.912H179.819C180.037 124.912 180.214 125.249 180.214 125.665V125.916C180.214 126.332 180.037 126.669 179.819 126.669H159.047C158.829 126.669 158.653 126.332 158.653 125.916V125.665C158.653 125.249 158.829 124.912 159.047 124.912Z" fill="#002255"/>
<path opacity="0.99" fill-rule="evenodd" clip-rule="evenodd" d="M179.676 125.412C179.696 125.47 179.714 125.556 179.714 125.665V125.916C179.714 126.024 179.696 126.111 179.676 126.169H159.191C159.171 126.111 159.153 126.024 159.153 125.916V125.665C159.153 125.556 159.171 125.47 159.191 125.412H179.676ZM180.541 124.9C180.438 124.703 180.208 124.412 179.819 124.412H159.047C158.659 124.412 158.429 124.703 158.325 124.9C158.21 125.122 158.153 125.393 158.153 125.665V125.916C158.153 126.188 158.21 126.459 158.325 126.68C158.429 126.878 158.659 127.169 159.047 127.169H179.819C180.208 127.169 180.438 126.878 180.541 126.68C180.657 126.459 180.714 126.188 180.714 125.916V125.665C180.714 125.393 180.657 125.122 180.541 124.9Z" fill="black"/>
<path opacity="0.5" d="M158.822 125.525V125.583C158.822 125.778 159.041 125.935 159.313 125.935H179.581C179.749 125.935 179.89 125.871 179.979 125.778V126.072C179.979 126.267 179.76 126.425 179.488 126.425H159.22C158.948 126.425 158.729 126.267 158.729 126.072V125.72C158.729 125.646 158.768 125.581 158.822 125.525Z" fill="black"/>
</g>
<defs>
<filter id="filter0_i_1391_305" x="0" y="0" width="556" height="372" filterUnits="userSpaceOnUse" color-interpolation-filters="sRGB">
<feFlood flood-opacity="0" result="BackgroundImageFix"/>
<feBlend mode="normal" in="SourceGraphic" in2="BackgroundImageFix" result="shape"/>
<feColorMatrix in="SourceAlpha" type="matrix" values="0 0 0 0 0 0 0 0 0 0 0 0 0 0 0 0 0 0 127 0" result="hardAlpha"/>
<feOffset dy="4"/>
<feGaussianBlur stdDeviation="2"/>
<feComposite in2="hardAlpha" operator="arithmetic" k2="-1" k3="1"/>
<feColorMatrix type="matrix" values="0 0 0 0 0 0 0 0 0 0 0 0 0 0 0 0 0 0 0.25 0"/>
<feBlend mode="normal" in2="shape" result="effect1_innerShadow_1391_305"/>
</filter>
<filter id="filter1_f_1391_305" x="164.534" y="43.5385" width="125.919" height="81.4237" filterUnits="userSpaceOnUse" color-interpolation-filters="sRGB">
<feFlood flood-opacity="0" result="BackgroundImageFix"/>
<feBlend mode="normal" in="SourceGraphic" in2="BackgroundImageFix" result="shape"/>
<feGaussianBlur stdDeviation="9.96365" result="effect1_foregroundBlur_1391_305"/>
</filter>
<filter id="filter2_f_1391_305" x="190.256" y="154.159" width="313.283" height="123.974" filterUnits="userSpaceOnUse" color-interpolation-filters="sRGB">
<feFlood flood-opacity="0" result="BackgroundImageFix"/>
<feBlend mode="normal" in="SourceGraphic" in2="BackgroundImageFix" result="shape"/>
<feGaussianBlur stdDeviation="16.3" result="effect1_foregroundBlur_1391_305"/>
</filter>
<filter id="filter3_f_1391_305" x="144.894" y="76.0479" width="311.897" height="63.532" filterUnits="userSpaceOnUse" color-interpolation-filters="sRGB">
<feFlood flood-opacity="0" result="BackgroundImageFix"/>
<feBlend mode="normal" in="SourceGraphic" in2="BackgroundImageFix" result="shape"/>
<feGaussianBlur stdDeviation="1.33972" result="effect1_foregroundBlur_1391_305"/>
</filter>
<filter id="filter4_f_1391_305" x="354.48" y="18.9724" width="129.67" height="71.6678" filterUnits="userSpaceOnUse" color-interpolation-filters="sRGB">
<feFlood flood-opacity="0" result="BackgroundImageFix"/>
<feBlend mode="normal" in="SourceGraphic" in2="BackgroundImageFix" result="shape"/>
<feGaussianBlur stdDeviation="4.37086" result="effect1_foregroundBlur_1391_305"/>
</filter>
<filter id="filter5_f_1391_305" x="20.8803" y="129.375" width="129.669" height="71.669" filterUnits="userSpaceOnUse" color-interpolation-filters="sRGB">
<feFlood flood-opacity="0" result="BackgroundImageFix"/>
<feBlend mode="normal" in="SourceGraphic" in2="BackgroundImageFix" result="shape"/>
<feGaussianBlur stdDeviation="4.37086" result="effect1_foregroundBlur_1391_305"/>
</filter>
<filter id="filter6_f_1391_305" x="310.5" y="116.491" width="24.2253" height="9.71336" filterUnits="userSpaceOnUse" color-interpolation-filters="sRGB">
<feFlood flood-opacity="0" result="BackgroundImageFix"/>
<feBlend mode="normal" in="SourceGraphic" in2="BackgroundImageFix" result="shape"/>
<feGaussianBlur stdDeviation="0.530207" result="effect1_foregroundBlur_1391_305"/>
</filter>
<filter id="filter7_f_1391_305" x="144.86" y="111.021" width="312.111" height="49.6372" filterUnits="userSpaceOnUse" color-interpolation-filters="sRGB">
<feFlood flood-opacity="0" result="BackgroundImageFix"/>
<feBlend mode="normal" in="SourceGraphic" in2="BackgroundImageFix" result="shape"/>
<feGaussianBlur stdDeviation="1.25433" result="effect1_foregroundBlur_1391_305"/>
</filter>
<filter id="filter8_f_1391_305" x="303.211" y="114.745" width="20.342" height="6.77484" filterUnits="userSpaceOnUse" color-interpolation-filters="sRGB">
<feFlood flood-opacity="0" result="BackgroundImageFix"/>
<feBlend mode="normal" in="SourceGraphic" in2="BackgroundImageFix" result="shape"/>
<feGaussianBlur stdDeviation="0.195113" result="effect1_foregroundBlur_1391_305"/>
</filter>
<filter id="filter9_f_1391_305" x="385.333" y="112.529" width="16.678" height="13.2137" filterUnits="userSpaceOnUse" color-interpolation-filters="sRGB">
<feFlood flood-opacity="0" result="BackgroundImageFix"/>
<feBlend mode="normal" in="SourceGraphic" in2="BackgroundImageFix" result="shape"/>
<feGaussianBlur stdDeviation="0.214429" result="effect1_foregroundBlur_1391_305"/>
</filter>
<filter id="filter10_f_1391_305" x="321.013" y="110.642" width="67.2475" height="9.26725" filterUnits="userSpaceOnUse" color-interpolation-filters="sRGB">
<feFlood flood-opacity="0" result="BackgroundImageFix"/>
<feBlend mode="normal" in="SourceGraphic" in2="BackgroundImageFix" result="shape"/>
<feGaussianBlur stdDeviation="0.271342" result="effect1_foregroundBlur_1391_305"/>
</filter>
<filter id="filter11_f_1391_305" x="321.137" y="106.98" width="66.908" height="10.4539" filterUnits="userSpaceOnUse" color-interpolation-filters="sRGB">
<feFlood flood-opacity="0" result="BackgroundImageFix"/>
<feBlend mode="normal" in="SourceGraphic" in2="BackgroundImageFix" result="shape"/>
<feGaussianBlur stdDeviation="0.274851" result="effect1_foregroundBlur_1391_305"/>
</filter>
<filter id="filter12_f_1391_305" x="371.935" y="167.748" width="21.1326" height="19.5813" filterUnits="userSpaceOnUse" color-interpolation-filters="sRGB">
<feFlood flood-opacity="0" result="BackgroundImageFix"/>
<feBlend mode="normal" in="SourceGraphic" in2="BackgroundImageFix" result="shape"/>
<feGaussianBlur stdDeviation="0.675484" result="effect1_foregroundBlur_1391_305"/>
</filter>
<linearGradient id="paint0_linear_1391_305" x1="455.892" y1="161.699" x2="456.424" y2="102.208" gradientUnits="userSpaceOnUse">
<stop/>
<stop offset="1" stop-color="white" stop-opacity="0.5"/>
</linearGradient>
<linearGradient id="paint1_linear_1391_305" x1="382.579" y1="184.277" x2="382.579" y2="160.601" gradientUnits="userSpaceOnUse">
<stop/>
<stop offset="1" stop-color="white" stop-opacity="0.5"/>
</linearGradient>
</defs>
</svg>
