<?xml version="1.0" standalone="no"?>
<!DOCTYPE svg PUBLIC "-//W3C//DTD SVG 20010904//EN"
 "http://www.w3.org/TR/2001/REC-SVG-20010904/DTD/svg10.dtd">
<svg version="1.0" xmlns="http://www.w3.org/2000/svg"
 width="888.000000pt" height="888.000000pt" viewBox="0 0 888.000000 888.000000"
 preserveAspectRatio="xMidYMid meet">
<metadata>
Created by potrace 1.14, written by Peter Selinger 2001-2017
</metadata>
<g transform="translate(0.000000,888.000000) scale(0.100000,-0.100000)"
fill="#000000" stroke="none">
<path d="M4309 8758 c-1 -2 -2 -486 -3 -1076 l-1 -1072 30 -1 c45 -1 338 -1
355 0 13 1 15 124 15 1076 l0 1075 -197 0 c-109 0 -199 -1 -199 -2z"/>
<path d="M1583 7892 c-28 -26 -75 -67 -104 -92 -29 -25 -66 -57 -83 -72 -17
-15 -34 -28 -38 -28 -19 0 -3 -28 54 -94 35 -39 65 -73 68 -76 3 -3 68 -77
144 -165 76 -88 153 -176 170 -195 32 -36 64 -72 171 -195 33 -38 65 -73 70
-79 10 -11 278 -318 299 -343 6 -7 22 -26 36 -41 14 -15 43 -48 65 -74 22 -25
65 -74 95 -109 30 -34 64 -73 75 -85 30 -35 116 -132 135 -154 10 -11 21 -20
26 -20 5 0 30 19 56 43 25 23 74 67 109 97 34 30 79 69 98 87 l35 32 -24 28
c-14 15 -28 30 -31 33 -3 3 -36 41 -74 85 -38 44 -79 91 -92 105 -47 53 -70
78 -115 131 -26 30 -55 63 -65 75 -88 102 -133 153 -163 186 -19 21 -51 57
-70 79 -19 23 -44 51 -55 63 -11 12 -45 50 -75 86 -55 64 -102 118 -150 171
-14 15 -34 38 -44 51 -23 28 -127 147 -176 202 -19 22 -45 51 -58 65 -12 14
-32 37 -45 51 -12 14 -47 54 -77 89 -84 96 -98 111 -107 111 -4 0 -31 -22 -60
-48z"/>
<path d="M7219 7638 c-18 -24 -39 -50 -46 -58 -8 -8 -42 -51 -76 -95 -66 -85
-82 -105 -108 -134 -9 -10 -18 -23 -20 -29 -2 -6 -19 -28 -36 -49 -32 -38
-113 -138 -164 -204 -26 -34 -213 -270 -236 -299 -63 -79 -200 -252 -257 -325
-38 -49 -72 -92 -76 -95 -3 -3 -19 -23 -35 -45 -17 -22 -32 -42 -35 -45 -3 -3
-30 -36 -60 -75 -30 -38 -60 -77 -67 -85 -54 -67 -73 -94 -73 -104 0 -7 15
-23 33 -36 61 -45 222 -175 225 -182 2 -5 10 -8 17 -8 7 0 16 -6 18 -12 5 -12
32 14 79 75 43 55 74 94 86 107 7 8 31 40 54 70 24 30 45 57 48 60 3 3 46 57
95 120 49 63 95 122 102 130 13 16 87 109 138 175 17 21 54 67 83 104 29 36
64 80 76 96 13 17 89 111 167 211 79 100 155 196 169 214 14 18 39 50 55 70
17 21 40 50 52 66 40 51 67 85 101 126 39 48 40 58 5 83 -26 20 -237 185 -260
205 -18 14 -18 14 -54 -32z"/>
<path d="M4179 6067 c-2 -3 -33 -8 -68 -11 -75 -8 -185 -30 -256 -52 -27 -8
-61 -18 -75 -20 -13 -3 -27 -10 -31 -15 -3 -6 -9 -10 -13 -10 -20 2 -67 -13
-77 -25 -6 -8 -16 -14 -21 -14 -19 0 -149 -70 -226 -121 -284 -190 -505 -470
-622 -789 -35 -93 -77 -266 -87 -351 -10 -83 -10 -316 -1 -399 24 -209 103
-440 217 -630 40 -68 66 -105 134 -194 35 -46 177 -188 232 -231 28 -22 52
-42 55 -45 40 -41 348 -210 382 -210 8 0 19 -5 26 -12 7 -7 12 -9 12 -5 0 4
10 3 21 -4 27 -14 178 -54 244 -64 28 -5 57 -10 65 -11 16 -4 218 -16 235 -15
6 0 46 3 90 5 44 3 94 8 110 11 17 2 48 7 70 11 48 7 121 26 230 61 128 41
400 182 413 215 2 4 9 8 15 8 16 0 121 92 212 186 85 88 84 87 130 149 17 22
33 42 38 43 4 2 7 10 7 18 0 8 5 14 10 14 6 0 10 5 10 11 0 6 8 23 18 37 35
51 91 160 85 166 -4 3 -1 6 5 6 7 0 12 9 12 19 0 11 4 21 9 23 11 4 77 209 96
296 20 99 26 148 30 242 3 47 5 87 6 90 1 3 1 9 0 14 -1 4 -4 49 -6 100 -3 50
-7 102 -10 116 -3 14 -7 39 -10 55 -3 17 -8 41 -10 55 -3 14 -7 34 -9 45 -8
38 -58 190 -78 235 -54 122 -107 221 -132 249 -9 10 -14 20 -11 23 3 2 -6 15
-20 28 -14 13 -25 29 -25 37 0 7 -4 13 -8 13 -4 0 -15 12 -24 28 -23 38 -171
190 -248 253 -92 77 -192 141 -308 199 -86 43 -241 102 -306 116 -39 9 -51 12
-51 14 0 1 -11 3 -25 5 -14 1 -41 6 -60 10 -19 4 -46 9 -60 11 -36 6 -335 15
-341 11z"/>
<path d="M4 4651 c-2 -2 -4 -92 -4 -200 l0 -196 1075 0 1075 0 0 50 c1 74 1
318 1 335 -1 13 -127 15 -1072 15 -589 0 -1073 -2 -1075 -4z"/>
<path d="M6729 4510 c-1 -154 -1 -242 0 -250 1 -3 485 -5 1076 -5 l1075 0 -2
200 -3 200 -1073 0 -1072 0 -1 -145z"/>
<path d="M2921 2802 c-51 -62 -208 -260 -322 -407 -35 -44 -65 -82 -68 -85 -4
-3 -19 -23 -36 -45 -16 -22 -34 -45 -40 -51 -33 -36 -55 -65 -55 -73 0 -5 -4
-11 -8 -13 -4 -1 -50 -57 -102 -123 -52 -66 -97 -122 -100 -125 -3 -3 -19 -23
-36 -45 -16 -22 -37 -49 -46 -60 -9 -11 -87 -110 -174 -220 -87 -110 -161
-201 -166 -203 -4 -2 -8 -8 -8 -13 0 -5 -8 -17 -17 -27 -10 -10 -29 -33 -43
-52 -14 -18 -37 -49 -52 -68 -34 -42 -34 -46 -4 -65 13 -9 29 -22 37 -29 8 -8
21 -19 30 -24 9 -5 34 -23 55 -41 102 -83 153 -123 159 -123 9 0 26 18 60 65
30 41 38 51 65 82 17 19 123 154 160 203 14 18 32 41 41 51 8 10 42 52 75 95
32 42 67 85 77 95 9 11 17 24 17 29 0 6 5 10 10 10 6 0 14 8 17 18 4 9 12 22
18 27 6 6 45 53 86 105 41 52 79 102 86 110 16 20 101 126 135 170 76 97 252
318 269 338 10 12 19 26 19 31 0 5 3 11 8 13 4 2 25 26 47 53 22 28 42 52 45
55 19 19 102 132 99 135 -3 3 -144 114 -199 158 -9 7 -36 29 -62 49 l-46 38
-31 -38z"/>
<path d="M6054 2694 c-49 -41 -93 -81 -99 -87 -5 -7 -31 -30 -57 -51 -31 -25
-45 -43 -40 -51 7 -13 111 -134 207 -241 6 -6 35 -39 65 -74 87 -100 143 -164
154 -176 6 -6 30 -33 53 -60 23 -27 50 -58 60 -70 10 -11 43 -49 73 -84 30
-34 60 -68 65 -74 6 -6 58 -65 115 -131 58 -66 110 -125 115 -131 9 -9 75 -85
138 -158 28 -31 121 -137 132 -150 6 -6 39 -45 75 -86 36 -41 79 -90 95 -108
17 -19 34 -40 38 -48 12 -22 31 -17 69 18 20 18 64 58 98 88 35 30 77 67 94
82 17 15 34 28 37 28 4 0 10 7 13 16 4 11 -13 38 -51 83 -32 36 -60 68 -63 71
-3 3 -34 39 -70 80 -36 41 -67 77 -70 80 -3 3 -34 39 -70 80 -36 41 -81 92
-100 113 -19 22 -44 50 -55 64 -11 14 -29 35 -40 47 -11 12 -47 52 -80 91 -33
38 -69 79 -80 91 -11 11 -31 34 -44 50 -13 16 -43 49 -65 74 -23 25 -66 74
-96 110 -30 35 -62 71 -70 80 -8 9 -42 47 -75 85 -33 39 -62 72 -65 75 -3 3
-34 39 -70 80 -36 41 -67 77 -70 80 -5 5 -90 103 -140 163 -13 15 -27 27 -30
27 -4 0 -47 -34 -96 -76z"/>
<path d="M4329 2300 l-24 -5 0 -1073 0 -1072 80 -1 c44 0 133 -1 197 -2 73 -1
118 2 119 8 1 6 2 489 3 1074 1 884 -1 1064 -12 1069 -18 6 -331 8 -363 2z"/>
</g>
</svg>
