<svg width="50" height="50" viewBox="0 0 245 245" fill="none" xmlns="http://www.w3.org/2000/svg">
<circle cx="122.5" cy="122.5" r="122.5" fill="#34E0A1"/>
<g clip-path="url(#clip0_1213_302)">
<path d="M82.6683 106.33C70.8214 106.33 61.2437 117.623 61.2437 131.551C61.2437 145.48 70.8214 156.773 82.635 156.773C94.4486 156.773 104.026 145.48 104.026 131.551C104.06 117.623 94.4819 106.33 82.6683 106.33ZM82.6683 149.612C74.2253 149.612 67.3507 141.546 67.3507 131.551C67.3507 121.557 74.1919 113.491 82.6683 113.491C91.1448 113.491 97.9526 121.597 97.9526 131.551C97.9526 141.506 91.1114 149.612 82.6683 149.612Z" fill="#222222"/>
<path d="M82.735 144.064C88.6144 144.064 93.3806 138.444 93.3806 131.512C93.3806 124.58 88.6144 118.96 82.735 118.96C76.8556 118.96 72.0894 124.58 72.0894 131.512C72.0894 138.444 76.8556 144.064 82.735 144.064Z" fill="#222222"/>
<path d="M168.1 106.33C156.287 106.33 146.709 117.623 146.709 131.551C146.709 145.48 156.287 156.773 168.1 156.773C179.914 156.773 189.492 145.48 189.492 131.551C189.492 117.623 179.914 106.33 168.1 106.33ZM168.1 149.612C159.657 149.612 152.783 141.546 152.783 131.551C152.783 121.557 159.624 113.491 168.1 113.491C176.577 113.491 183.385 121.597 183.385 131.551C183.385 141.506 176.543 149.612 168.1 149.612Z" fill="#222222"/>
<path d="M168.167 144.064C174.046 144.064 178.813 138.444 178.813 131.512C178.813 124.58 174.046 118.96 168.167 118.96C162.288 118.96 157.521 124.58 157.521 131.512C157.521 138.444 162.288 144.064 168.167 144.064Z" fill="#222222"/>
<path d="M198.201 95.8189L210.783 81.1032H185.287C171.003 67.4104 147.276 55.9998 125.284 55.9998C103.259 55.9998 79.7316 67.4104 65.4485 81.1032H39.8857L52.4669 95.8189C44.6913 104.947 39.8857 117.578 39.8857 131.546C39.8857 159.404 59.0411 181.989 82.6684 181.989C93.5142 181.989 103.426 177.228 110.968 169.359L125.451 181.91L139.767 169.634L139.601 169.162C147.176 177.11 157.121 181.95 168.067 181.95C191.694 181.95 210.849 159.364 210.849 131.507C210.816 117.578 205.977 104.947 198.201 95.8189ZM162.694 81.4966C142.437 84.487 126.552 104.161 125.351 128.516C124.116 104.121 108.198 84.4083 87.8744 81.4966C98.0861 72.8403 111.101 68.5908 125.284 68.5908C139.467 68.5908 152.482 72.8403 162.694 81.4966ZM82.6684 169.398C64.9146 169.398 50.5647 152.439 50.5647 131.546C50.5647 110.653 64.9479 93.6942 82.6684 93.6942C100.389 93.6942 114.772 110.653 114.772 131.546C114.739 152.439 100.389 169.398 82.6684 169.398ZM168.1 169.398C150.38 169.398 135.996 152.439 135.996 131.546C135.996 110.653 150.38 93.6942 168.1 93.6942C185.821 93.6942 200.204 110.653 200.204 131.546C200.17 152.439 185.821 169.398 168.1 169.398Z" fill="#222222"/>
</g>
<defs>
<clipPath id="clip0_1213_302">
<rect width="170.93" height="126" fill="white" transform="translate(39.8857 55.9998)"/>
</clipPath>
</defs>
</svg>
